<?xml version="1.0" standalone="no"?>
<!DOCTYPE svg PUBLIC "-//W3C//DTD SVG 20010904//EN"
 "http://www.w3.org/TR/2001/REC-SVG-20010904/DTD/svg10.dtd">
<svg version="1.0" xmlns="http://www.w3.org/2000/svg"
 width="16.000000pt" height="16.000000pt" viewBox="0 0 16.000000 16.000000"
 preserveAspectRatio="xMidYMid meet">
<metadata>
Created by potrace 1.11, written by Peter Selinger 2001-2013
</metadata>
<g transform="translate(0.000000,16.000000) scale(0.000533,-0.000533)"
fill="#000000" stroke="none">
<path d="M14320 29989 c-2757 -128 -5366 -984 -7655 -2512 -1267 -846 -2441
-1925 -3394 -3120 -1912 -2398 -3035 -5286 -3241 -8337 -41 -617 -41 -1423 0
-2040 206 -3051 1328 -5936 3241 -8337 779 -977 1720 -1890 2727 -2646 2153
-1617 4691 -2621 7357 -2911 612 -67 905 -81 1645 -81 740 0 1033 14 1645 81
2666 290 5204 1294 7357 2911 1007 756 1948 1669 2727 2646 1846 2317 2951
5071 3215 8017 41 455 56 809 56 1340 0 419 -8 692 -30 1020 -196 2899 -1221
5658 -2969 7985 -844 1124 -1871 2151 -2999 2998 -2323 1745 -5083 2771 -7982
2967 -444 30 -1271 39 -1700 19z m1045 -269 c495 -14 829 -36 1275 -86 3136
-347 6066 -1695 8390 -3860 1491 -1388 2697 -3099 3495 -4959 835 -1947 1241
-4062 1185 -6174 -13 -498 -35 -827 -86 -1281 -269 -2429 -1142 -4749 -2541
-6759 -774 -1111 -1722 -2134 -2779 -2999 -1968 -1613 -4337 -2690 -6839
-3111 -1362 -229 -2740 -268 -4115 -115 -2448 271 -4786 1155 -6805 2574
-1407 988 -2655 2241 -3638 3651 -1399 2009 -2272 4331 -2541 6759 -121 1089
-121 2201 0 3290 233 2104 920 4133 2014 5945 875 1449 1989 2735 3306 3813
865 710 1860 1347 2870 1838 1881 915 3928 1416 6019 1473 401 11 422 11 790
1z"/>
<path d="M14315 29419 c-2608 -120 -5146 -954 -7315 -2402 -3381 -2258 -5648
-5804 -6265 -9802 -115 -748 -165 -1411 -165 -2207 0 -858 58 -1570 196 -2403
596 -3601 2591 -6890 5524 -9107 2349 -1775 5121 -2775 8063 -2908 294 -13
990 -13 1284 0 2012 91 3953 589 5737 1470 2849 1408 5158 3717 6565 6566 883
1786 1380 3724 1471 5737 5 126 10 415 10 642 0 451 -10 734 -40 1122 -246
3170 -1515 6135 -3644 8513 -1422 1587 -3226 2869 -5186 3685 -1558 650 -3211
1018 -4913 1095 -263 12 -1056 11 -1322 -1z m1422 -3254 c22 -15 43 -82 43
-137 0 -55 -39 -119 -93 -154 -27 -18 -119 -55 -205 -84 -178 -60 -236 -87
-287 -131 -42 -37 -60 -70 -70 -122 -8 -42 -32 -60 -73 -55 -26 3 -27 6 -26
53 4 147 136 263 374 329 138 39 193 63 231 102 33 34 34 38 34 116 0 72 2 82
20 89 28 11 28 11 52 -6z m327 -121 c19 -19 22 -108 4 -165 -15 -53 -65 -109
-126 -142 -27 -15 -110 -41 -183 -58 -74 -18 -152 -40 -175 -49 -58 -25 -112
-76 -138 -129 -17 -36 -27 -47 -49 -49 -60 -7 -73 38 -33 117 49 96 145 153
344 201 67 17 134 35 149 42 83 36 122 94 123 184 0 28 3 54 7 57 12 13 62 7
77 -9z m-142 -885 l3 -101 71 -18 c211 -54 339 -185 352 -358 5 -77 -15 -161
-52 -221 -75 -118 -236 -197 -446 -219 l-73 -7 -54 -87 c-30 -48 -83 -117
-119 -153 -35 -36 -64 -67 -64 -69 0 -2 37 -6 83 -9 98 -8 230 -30 271 -46 94
-37 -126 -81 -509 -101 -557 -29 -1303 12 -1355 75 -8 10 -1 17 32 29 48 17
232 46 297 46 22 0 41 4 41 9 0 5 -15 21 -32 36 -152 126 -259 356 -308 660
-18 107 -39 426 -40 578 l0 57 950 0 949 0 3 -101z m-2663 -640 c58 -13 97
-42 121 -89 24 -47 25 -68 4 -117 -9 -21 -22 -51 -29 -68 -7 -16 -21 -50 -32
-75 -75 -168 -44 -357 91 -554 63 -92 118 -148 286 -294 318 -275 507 -497
691 -809 93 -156 224 -426 289 -593 11 -30 25 -64 29 -75 5 -11 18 -47 30 -80
12 -33 29 -75 37 -93 8 -18 14 -39 14 -47 0 -8 6 -29 14 -47 8 -18 24 -67 36
-108 12 -41 26 -84 31 -95 5 -11 13 -38 18 -60 20 -81 34 -131 47 -170 8 -23
14 -52 14 -65 1 -14 7 -36 15 -50 8 -14 14 -38 15 -53 0 -15 6 -40 14 -55 7
-15 17 -45 20 -68 8 -48 46 -100 68 -92 15 6 28 40 69 183 11 39 27 91 35 116
8 26 14 56 14 67 0 11 7 36 15 55 8 20 15 47 15 59 0 13 7 36 15 52 8 15 15
35 15 42 0 13 25 97 51 169 6 17 14 44 19 60 17 61 108 306 146 392 8 17 14
34 14 37 0 16 163 352 215 441 19 33 37 67 41 75 13 28 137 214 197 295 131
178 233 285 470 492 158 139 226 207 311 314 27 33 84 146 105 207 16 48 21
86 21 168 0 101 -2 109 -41 202 -23 53 -45 101 -50 106 -5 6 -9 39 -9 75 0 62
1 65 40 102 29 28 53 40 94 49 105 22 183 -7 373 -136 54 -37 141 -96 193
-132 52 -35 111 -76 130 -91 19 -14 43 -30 52 -36 9 -5 45 -30 80 -54 35 -24
90 -63 123 -86 33 -22 83 -57 110 -76 28 -20 91 -63 140 -97 50 -34 142 -97
205 -141 63 -44 158 -109 210 -145 52 -36 147 -101 210 -145 63 -44 144 -101
180 -126 36 -24 95 -66 132 -92 37 -27 87 -61 110 -78 64 -45 347 -258 478
-359 316 -247 618 -524 828 -761 59 -66 109 -122 112 -125 9 -8 153 -192 179
-227 38 -55 56 -46 153 75 122 150 199 244 220 267 11 11 63 70 116 132 188
218 478 492 687 649 164 123 372 244 533 311 17 7 47 19 65 27 17 8 64 24 102
37 39 12 85 28 103 35 18 8 43 14 57 14 13 0 36 5 52 11 45 18 177 39 323 50
177 13 422 -7 525 -43 17 -5 46 -14 65 -18 61 -14 199 -74 285 -123 240 -139
479 -406 604 -676 4 -9 15 -31 24 -49 9 -19 17 -38 17 -44 0 -5 6 -24 14 -41
21 -49 56 -170 56 -192 0 -11 7 -42 15 -69 21 -69 21 -463 0 -521 -8 -22 -15
-49 -15 -59 0 -22 -35 -134 -55 -181 -47 -105 -64 -138 -104 -205 -140 -235
-354 -428 -612 -553 -41 -20 -80 -37 -87 -37 -6 0 -26 -6 -44 -14 -70 -31
-145 -48 -269 -62 -186 -20 -348 -1 -524 64 -145 52 -336 172 -448 280 -70 68
-169 204 -219 302 -72 142 -94 214 -109 357 -16 158 6 335 56 458 87 212 201
362 377 496 42 33 80 59 84 59 4 0 15 6 23 13 14 11 46 26 156 72 69 29 128
38 276 42 126 4 164 1 194 -11 21 -9 45 -16 55 -16 33 0 215 -100 275 -151
124 -106 197 -213 246 -361 18 -58 21 -83 17 -172 -3 -58 -9 -111 -15 -118 -6
-7 -13 -26 -17 -42 -11 -44 -67 -125 -125 -181 -52 -50 -146 -114 -168 -115
-6 0 -24 -6 -40 -14 -15 -8 -55 -19 -89 -25 -204 -37 -383 27 -500 178 -50 65
-71 103 -103 189 -21 55 -23 74 -19 199 3 106 8 145 22 170 18 34 14 73 -7 73
-34 0 -166 -107 -220 -179 -84 -112 -132 -239 -145 -383 -26 -291 71 -533 279
-693 314 -243 804 -228 1157 35 105 79 234 227 273 315 5 11 13 27 18 35 8 15
28 60 51 115 24 59 60 196 60 228 0 17 5 67 12 109 15 99 1 236 -43 413 -11
46 -13 52 -64 160 -58 122 -101 181 -205 286 -80 80 -205 179 -227 179 -4 0
-14 6 -22 13 -35 29 -257 117 -296 117 -13 0 -38 6 -56 14 -67 27 -344 39
-519 23 -90 -9 -195 -29 -271 -53 -26 -8 -52 -14 -58 -14 -42 0 -350 -141
-439 -201 -24 -16 -45 -29 -48 -29 -11 0 -216 -153 -293 -219 -226 -194 -464
-458 -743 -821 -149 -195 -168 -222 -168 -240 0 -10 11 -31 24 -46 13 -16 73
-90 132 -164 197 -247 356 -423 614 -680 285 -286 556 -518 807 -693 124 -87
187 -129 254 -169 39 -24 82 -51 97 -60 15 -10 34 -21 42 -25 8 -4 51 -27 95
-53 83 -47 266 -138 370 -184 33 -15 74 -33 90 -41 72 -32 212 -85 226 -85 8
0 20 -5 26 -11 6 -6 26 -14 44 -19 19 -4 49 -13 67 -19 17 -6 47 -16 65 -22
65 -21 234 -65 312 -81 28 -5 73 -16 101 -24 28 -8 69 -14 91 -14 22 0 62 -7
89 -15 27 -8 76 -15 109 -15 33 0 107 -7 165 -15 137 -19 399 -19 520 0 52 8
118 15 146 15 28 0 71 7 94 15 23 8 57 15 74 15 32 0 49 4 236 65 105 34 222
82 260 106 8 5 25 13 38 19 79 34 264 174 353 266 162 169 260 350 333 615 23
80 22 381 0 458 -25 85 -56 161 -86 214 -16 26 -28 51 -28 55 0 13 -114 140
-160 179 -53 46 -125 94 -160 108 -8 4 -28 12 -45 19 -102 44 -264 58 -348 30
-190 -62 -298 -150 -372 -300 -33 -68 -35 -79 -35 -171 0 -67 5 -107 15 -127
8 -15 15 -32 15 -37 0 -15 49 -83 92 -127 76 -77 159 -120 271 -140 34 -5 135
23 192 54 188 103 197 107 261 107 81 0 115 -25 139 -99 16 -51 16 -58 0 -111
-35 -121 -92 -203 -168 -241 -26 -13 -49 -27 -52 -33 -4 -5 -13 -9 -21 -9 -8
0 -36 -10 -62 -22 -42 -19 -64 -22 -207 -22 -148 0 -166 2 -239 27 -186 64
-329 164 -433 302 -38 52 -103 181 -103 206 0 11 -6 32 -13 47 -8 15 -20 78
-27 140 -14 123 -2 298 26 377 8 23 14 48 14 57 0 18 27 84 76 183 88 180 217
329 383 443 94 64 289 152 371 168 14 3 48 11 75 19 28 8 107 19 178 25 142
12 347 0 428 -25 26 -8 55 -15 65 -15 36 0 241 -77 294 -111 8 -5 25 -13 37
-19 93 -40 313 -232 378 -330 17 -25 35 -50 41 -56 5 -6 32 -56 58 -110 27
-55 54 -112 62 -127 8 -16 14 -35 14 -42 0 -8 5 -26 12 -42 11 -27 27 -92 49
-198 13 -66 13 -435 -1 -505 -25 -133 -55 -253 -76 -312 -33 -91 -80 -204 -98
-238 -45 -85 -80 -147 -89 -159 -6 -7 -16 -21 -22 -31 -18 -33 -83 -124 -102
-145 -10 -11 -43 -49 -73 -84 -90 -104 -247 -234 -420 -349 -103 -68 -407
-222 -438 -222 -6 0 -23 -6 -39 -14 -30 -15 -80 -33 -128 -46 -16 -5 -43 -13
-60 -19 -29 -10 -120 -35 -220 -61 -27 -7 -75 -16 -105 -20 -30 -4 -68 -13
-83 -19 -16 -6 -50 -11 -77 -11 -27 0 -82 -8 -122 -17 -62 -14 -139 -17 -523
-17 -331 0 -465 3 -505 13 -30 7 -98 16 -150 21 -52 4 -120 13 -150 19 -233
44 -312 59 -380 75 -110 25 -244 61 -295 78 -16 5 -48 14 -70 19 -22 5 -49 13
-60 18 -22 10 -103 37 -150 51 -49 14 -98 32 -127 46 -14 8 -31 14 -38 14 -6
0 -30 8 -53 18 -23 10 -62 26 -87 36 -60 24 -150 62 -213 90 -85 39 -409 200
-462 231 -33 19 -67 38 -75 42 -16 7 -134 76 -178 105 -15 10 -34 21 -42 25
-8 4 -26 14 -40 24 -14 9 -72 48 -130 86 -305 201 -546 386 -800 612 -178 159
-467 447 -585 584 -30 35 -57 57 -70 57 -13 0 -59 -40 -126 -107 -146 -150
-349 -370 -434 -472 -16 -19 -59 -69 -95 -111 -100 -115 -303 -368 -415 -517
-163 -217 -272 -369 -365 -509 -8 -13 -27 -40 -41 -61 -15 -21 -61 -92 -104
-158 -42 -66 -95 -145 -116 -175 -22 -30 -55 -78 -74 -107 -47 -71 -189 -213
-256 -256 -263 -168 -583 -133 -690 75 -19 36 -22 59 -22 148 0 89 3 111 22
147 26 49 64 89 104 110 17 9 27 21 25 31 -5 24 -75 27 -223 8 -163 -21 -686
-22 -830 -1 -55 8 -131 15 -170 15 -38 0 -95 7 -125 15 -30 8 -75 15 -100 15
-25 0 -61 5 -80 10 -19 6 -69 17 -110 25 -234 44 -433 95 -610 157 -47 16 -98
33 -115 38 -266 75 -411 244 -373 434 13 70 58 152 116 213 46 48 192 158 222
168 12 4 26 19 31 33 8 21 7 29 -7 39 -10 7 -28 13 -40 13 -12 0 -27 7 -34 15
-7 8 -17 15 -23 15 -22 0 -290 194 -337 243 -34 37 -63 34 -113 -11 -78 -71
-303 -232 -324 -232 -6 0 -16 -7 -23 -15 -7 -8 -25 -15 -40 -15 -65 0 -60 -57
9 -96 126 -73 250 -195 294 -288 36 -76 38 -196 5 -265 -50 -106 -189 -204
-353 -251 -16 -5 -68 -22 -115 -38 -179 -62 -374 -112 -610 -157 -41 -8 -91
-19 -110 -25 -19 -5 -55 -10 -80 -10 -25 -1 -72 -7 -105 -15 -33 -8 -89 -15
-125 -15 -36 0 -112 -7 -170 -15 -151 -21 -678 -20 -821 1 -134 19 -222 16
-227 -8 -2 -12 7 -22 25 -30 79 -36 133 -142 133 -263 0 -195 -152 -326 -377
-324 -226 1 -409 113 -599 364 -56 73 -164 232 -164 240 0 2 -28 46 -62 97
-35 52 -67 102 -73 110 -28 44 -149 220 -184 268 -23 30 -47 64 -55 75 -84
119 -333 444 -430 561 -28 33 -69 83 -91 110 -22 27 -58 69 -80 94 -22 25 -67
77 -100 115 -33 39 -87 99 -120 135 -331 355 -386 410 -409 410 -13 -1 -44
-27 -81 -70 -80 -92 -479 -488 -580 -576 -310 -267 -523 -431 -795 -608 -58
-37 -116 -76 -130 -85 -14 -10 -32 -21 -40 -25 -17 -8 -39 -21 -95 -58 -23
-14 -63 -38 -90 -52 -28 -15 -77 -43 -110 -61 -33 -19 -143 -75 -245 -125
-188 -93 -222 -109 -285 -135 -19 -8 -50 -21 -67 -29 -18 -7 -58 -23 -88 -36
-30 -12 -64 -27 -75 -31 -11 -5 -33 -13 -50 -18 -16 -5 -55 -19 -85 -31 -30
-12 -68 -25 -85 -30 -16 -4 -41 -12 -55 -18 -14 -6 -59 -20 -100 -32 -41 -12
-86 -27 -100 -33 -14 -5 -43 -13 -65 -17 -22 -5 -53 -12 -70 -18 -65 -23 -245
-63 -450 -102 -33 -6 -85 -16 -115 -21 -30 -6 -98 -15 -150 -19 -52 -5 -120
-14 -150 -21 -40 -10 -175 -13 -500 -13 -379 0 -457 2 -529 17 -46 9 -103 17
-126 17 -24 0 -56 5 -72 11 -15 6 -53 15 -83 19 -30 4 -77 13 -105 20 -104 26
-191 51 -220 61 -16 6 -43 14 -60 17 -16 2 -39 11 -50 18 -11 8 -29 14 -40 14
-12 0 -30 7 -41 15 -10 8 -25 15 -32 15 -12 0 -49 15 -142 57 -19 9 -42 20
-50 24 -8 4 -35 18 -60 30 -40 20 -137 76 -205 119 -118 74 -314 238 -401 335
-63 71 -191 240 -207 275 -4 8 -17 31 -28 50 -36 58 -99 188 -99 202 0 8 -4
18 -9 23 -24 25 -91 253 -112 380 -20 127 -29 197 -29 225 0 17 -4 30 -10 30
-5 0 -10 20 -10 45 0 25 5 45 10 45 6 0 10 14 10 31 0 55 31 244 54 329 21 81
34 115 84 219 96 202 227 355 411 480 33 23 70 46 83 51 13 6 30 14 38 19 57
36 258 111 298 111 13 0 33 5 45 11 11 7 84 18 161 26 157 15 371 5 457 -22
26 -8 57 -15 70 -15 13 0 36 -6 50 -14 14 -7 38 -16 54 -20 47 -12 213 -95
279 -140 76 -52 193 -161 257 -242 27 -34 49 -64 49 -67 0 -4 12 -23 26 -44
51 -75 119 -235 134 -313 5 -25 14 -59 20 -76 7 -20 10 -96 7 -215 -4 -217
-10 -244 -88 -404 -84 -172 -261 -315 -485 -392 -73 -25 -91 -27 -239 -27
-126 0 -167 4 -195 16 -19 9 -46 19 -58 23 -44 13 -141 76 -172 113 -16 19
-44 64 -60 99 -24 51 -30 76 -30 133 0 68 1 72 38 112 37 39 40 40 103 40 70
0 85 -5 174 -57 111 -64 210 -104 260 -105 44 0 168 43 212 73 65 45 131 114
156 164 31 59 57 149 57 195 0 94 -70 247 -147 319 -43 41 -138 109 -152 109
-5 0 -22 6 -38 14 -15 8 -53 22 -83 31 -89 27 -272 10 -347 -33 -12 -6 -27
-12 -33 -12 -16 0 -115 -66 -178 -118 -94 -79 -217 -264 -243 -366 -4 -17 -12
-44 -18 -61 -19 -56 -34 -202 -28 -281 8 -107 23 -213 36 -249 5 -16 20 -59
32 -95 85 -248 283 -500 515 -653 56 -36 112 -71 125 -77 13 -5 31 -14 39 -19
38 -24 155 -72 260 -106 187 -61 204 -65 236 -65 17 0 51 -7 74 -15 23 -8 66
-15 94 -15 28 0 94 -7 146 -15 121 -19 383 -19 520 0 58 8 132 15 165 15 33 0
82 7 109 15 27 8 67 15 89 15 22 0 63 6 91 14 28 8 74 19 101 24 48 10 101 23
226 55 30 8 65 19 77 26 11 6 31 11 44 11 13 0 33 7 44 15 10 8 28 15 39 15
11 0 33 7 49 15 15 8 33 15 39 15 11 0 157 56 222 85 155 69 349 164 435 212
25 13 65 36 90 50 25 13 57 32 71 41 30 19 132 82 158 97 9 6 32 21 51 35 19
14 42 30 52 35 84 49 355 257 534 409 154 131 568 543 715 710 57 66 175 208
262 315 121 151 156 201 152 217 -11 46 -362 494 -556 709 -131 145 -199 212
-340 336 -89 78 -290 229 -306 229 -3 0 -14 6 -22 14 -54 47 -414 216 -462
216 -6 0 -32 6 -58 14 -217 68 -590 82 -796 30 -273 -69 -425 -152 -601 -329
-108 -109 -164 -191 -229 -340 -66 -151 -104 -439 -74 -575 5 -25 13 -70 19
-100 41 -238 196 -493 391 -640 72 -54 251 -150 280 -150 7 0 40 -9 73 -19
178 -56 423 -49 593 17 248 96 407 270 474 517 18 66 18 352 0 415 -18 60 -72
186 -94 215 -58 79 -99 122 -155 163 -116 86 -139 79 -100 -29 29 -84 32 -235
5 -324 -34 -108 -78 -186 -147 -255 -126 -126 -280 -172 -464 -139 -34 6 -74
17 -89 25 -16 8 -33 14 -39 14 -17 0 -121 67 -158 103 -74 70 -99 106 -141
202 -19 43 -22 67 -22 175 0 129 8 161 61 270 62 127 205 265 352 340 25 12
57 29 72 36 14 8 35 14 46 14 11 0 36 7 57 16 30 12 68 15 194 11 147 -4 205
-12 276 -41 91 -37 199 -97 267 -148 85 -64 211 -197 259 -273 46 -72 109
-195 109 -212 0 -8 6 -24 12 -36 19 -33 38 -121 50 -227 15 -137 -4 -303 -49
-425 -134 -363 -455 -650 -843 -753 -136 -36 -268 -45 -413 -28 -70 9 -148 22
-173 31 -25 8 -52 15 -62 15 -9 0 -26 7 -36 15 -11 8 -27 15 -35 15 -18 0
-146 62 -216 104 -147 89 -306 232 -408 369 -120 162 -181 290 -240 507 -42
153 -42 471 -1 635 26 102 55 198 71 235 9 19 22 51 30 70 9 19 19 42 23 51
91 182 188 316 321 445 79 76 186 162 219 177 8 4 29 16 45 27 71 46 227 114
295 130 19 4 49 13 65 18 103 36 348 56 525 43 152 -12 299 -34 329 -50 11 -6
32 -11 48 -11 15 -1 39 -7 53 -15 14 -8 33 -14 43 -15 16 0 166 -55 232 -84
112 -51 182 -87 263 -135 51 -31 100 -60 110 -66 49 -29 250 -175 283 -207 8
-7 41 -35 74 -63 187 -156 625 -627 805 -865 67 -89 107 -130 126 -130 13 0
41 28 81 83 34 45 70 91 80 102 10 11 52 61 93 110 185 222 567 582 874 823
129 102 416 318 508 384 104 73 397 278 461 322 37 25 91 63 120 83 68 48 161
112 272 188 50 34 113 78 142 98 68 48 166 116 278 192 50 34 113 78 142 98
68 48 166 116 278 192 50 34 115 79 145 100 99 70 124 86 187 121 86 49 154
61 232 43z m6708 -8929 c320 -817 600 -1534 623 -1595 51 -140 114 -350 130
-438 l12 -67 62 5 c33 2 105 7 159 10 l97 5 0 -215 0 -215 -750 0 -750 0 0
185 0 185 43 0 c97 0 176 43 208 114 42 92 18 231 -90 521 l-59 160 -224 -2
c-123 -1 -396 -5 -608 -9 l-385 -6 -72 -207 c-39 -114 -99 -273 -132 -354 -34
-81 -61 -150 -61 -153 0 -2 88 -2 195 2 l195 7 0 -221 0 -222 -595 0 -595 0 0
189 0 189 53 7 c136 17 256 118 344 291 60 117 67 135 713 1904 277 756 506
1385 511 1398 9 22 9 22 201 20 l193 -3 582 -1485z m-12260 1465 c503 -65 931
-307 1216 -687 237 -317 385 -706 426 -1122 76 -774 -287 -1568 -898 -1961
-90 -58 -288 -153 -396 -189 -214 -73 -387 -100 -650 -100 -376 0 -637 56
-930 199 -279 137 -486 319 -658 580 -139 211 -250 491 -301 760 -36 188 -40
246 -41 485 0 213 3 262 23 373 72 398 227 739 467 1026 294 352 698 571 1170
635 139 19 428 19 572 1z m-3955 -80 c701 -82 1070 -400 1072 -925 0 -217 -57
-361 -206 -526 -112 -122 -330 -253 -507 -304 -45 -13 -81 -26 -81 -30 0 -3
44 -13 98 -23 118 -22 303 -82 403 -133 398 -199 595 -509 576 -904 -14 -284
-104 -498 -287 -680 -208 -208 -500 -326 -890 -360 -66 -6 -531 -10 -1092 -10
l-978 0 0 184 0 183 80 6 c106 8 152 23 200 65 48 40 74 87 97 174 15 57 17
195 23 1448 4 762 10 1396 15 1409 l8 23 -212 -7 -211 -8 0 211 0 211 158 4
c86 1 483 4 882 5 588 2 749 -1 852 -13z m19675 -13 c242 -39 393 -82 538
-155 276 -138 444 -341 522 -632 25 -94 27 -113 27 -320 0 -211 -1 -224 -27
-310 -35 -115 -103 -252 -167 -337 -147 -194 -401 -366 -670 -453 -101 -33
-112 -41 -76 -55 54 -20 143 -89 223 -173 60 -63 134 -164 284 -388 111 -167
232 -344 269 -394 78 -104 175 -200 240 -237 53 -31 141 -58 187 -58 l33 0 0
-185 0 -185 -457 0 -457 0 -86 88 c-114 117 -176 208 -461 672 -294 480 -353
571 -436 678 l-64 82 -148 0 -148 0 -7 -507 c-3 -280 -9 -530 -12 -556 l-6
-48 88 5 c49 3 155 8 237 11 l147 6 0 -216 0 -215 -825 0 -825 0 0 184 0 183
78 7 c139 11 194 38 249 119 69 103 66 29 73 1567 4 762 10 1396 15 1409 l8
23 -212 -7 -211 -8 0 212 0 211 183 3 c100 2 538 3 972 2 754 -1 796 -2 922
-23z m-11854 -1091 c907 -1145 984 -1244 1127 -1449 46 -67 88 -122 92 -122 4
0 8 478 9 1063 0 584 4 1095 8 1135 l7 74 -208 -7 -208 -8 0 212 0 211 630 0
630 0 0 -180 c0 -104 -4 -180 -9 -180 -29 0 -171 -23 -200 -32 -44 -14 -107
-71 -132 -120 -10 -20 -27 -66 -36 -100 -16 -58 -17 -196 -20 -1700 l-4 -1638
-234 0 -234 0 -929 1188 c-511 653 -980 1258 -1043 1345 l-114 158 -5 -1098
c-3 -604 -7 -1105 -10 -1113 -4 -13 12 -15 115 -12 66 1 159 5 208 8 l87 6 0
-216 0 -216 -635 0 -635 0 0 184 0 183 83 6 c198 16 274 89 307 294 8 48 10
465 8 1388 -2 726 1 1346 5 1378 l9 59 -211 -7 -211 -8 0 212 0 211 438 0 437
0 878 -1109z m5367 1042 c0 -38 7 -268 15 -513 8 -245 15 -455 15 -467 l0 -23
-179 0 -179 0 -7 83 c-17 207 -75 349 -189 463 -133 132 -248 167 -545 165
-107 0 -223 -6 -259 -11 -133 -22 -196 -81 -240 -225 -13 -41 -16 -140 -19
-572 l-4 -523 332 0 332 0 -6 118 c-4 64 -10 174 -13 245 l-7 127 212 0 211 0
0 -675 0 -675 -179 0 -178 0 -7 78 c-16 196 -82 309 -212 369 -66 30 -226 45
-375 36 l-107 -6 -6 -661 c-3 -364 -8 -680 -12 -704 l-6 -43 443 3 c417 4 448
6 511 25 176 55 303 163 382 324 60 123 95 269 96 402 l0 47 180 0 180 0 0
-72 c0 -40 -7 -300 -15 -578 -8 -278 -15 -520 -15 -537 l0 -33 -1470 0 -1470
0 0 180 0 179 33 5 c17 3 55 8 82 11 153 19 228 90 267 253 8 33 13 460 18
1432 3 762 10 1396 15 1409 l8 23 -212 -7 -211 -8 0 212 0 211 1395 0 1395 0
0 -67z m11020 0 c0 -38 7 -268 15 -513 8 -245 15 -455 15 -467 l0 -23 -179 0
-179 0 -7 83 c-17 207 -75 349 -189 463 -133 132 -248 167 -545 165 -107 0
-223 -6 -259 -11 -133 -22 -196 -81 -240 -225 -13 -41 -16 -140 -19 -572 l-4
-523 332 0 332 0 -6 118 c-4 64 -10 174 -13 245 l-7 127 212 0 211 0 0 -675 0
-675 -179 0 -178 0 -7 78 c-16 196 -82 309 -212 369 -66 30 -226 45 -375 36
l-107 -6 -6 -661 c-3 -364 -8 -680 -12 -704 l-6 -43 443 3 c417 4 448 6 511
25 176 55 303 163 382 324 60 123 95 269 96 402 l0 47 180 0 180 0 0 -72 c0
-40 -7 -300 -15 -578 -8 -278 -15 -520 -15 -537 l0 -33 -1470 0 -1470 0 0 180
0 179 33 5 c17 3 55 8 82 11 153 19 228 90 267 253 8 33 13 460 18 1432 3 762
10 1396 15 1409 l8 23 -212 -7 -211 -8 0 212 0 211 1395 0 1395 0 0 -67z
m-18105 -4939 c72 -31 172 -129 199 -194 10 -25 26 -63 35 -85 24 -59 23 -356
-2 -402 -9 -18 -17 -40 -17 -50 0 -46 -77 -170 -155 -250 -45 -45 -92 -87
-105 -92 -14 -6 -32 -15 -40 -20 -37 -23 -102 -51 -118 -51 -9 0 -29 -6 -44
-14 -25 -13 -107 -27 -258 -43 -78 -8 -90 -17 -90 -61 0 -21 7 -47 15 -58 8
-10 15 -25 15 -32 0 -18 83 -184 123 -248 101 -159 326 -370 492 -460 39 -21
182 -93 345 -174 91 -45 197 -99 235 -121 39 -21 79 -43 90 -49 11 -6 38 -22
60 -35 22 -14 47 -28 55 -32 8 -4 36 -22 62 -40 26 -18 50 -33 53 -33 7 0 208
-138 315 -216 25 -18 78 -57 118 -86 40 -29 103 -76 140 -104 37 -28 91 -67
120 -87 28 -21 75 -53 102 -72 28 -19 73 -51 100 -70 28 -19 71 -50 98 -68 26
-18 69 -47 95 -63 27 -16 61 -37 75 -47 15 -9 41 -24 57 -32 17 -9 48 -26 70
-39 108 -64 293 -150 415 -194 110 -39 126 -44 170 -52 25 -5 58 -13 73 -19
15 -6 80 -15 145 -21 64 -6 129 -13 143 -16 33 -6 305 23 329 36 9 5 35 14 56
19 104 26 307 121 383 179 20 15 54 40 76 55 22 15 72 59 110 99 274 284 298
575 73 886 -105 147 -248 249 -424 306 -161 51 -366 -31 -491 -196 -89 -118
-126 -228 -120 -361 4 -91 26 -175 54 -208 7 -8 13 -20 13 -25 0 -12 74 -84
115 -111 17 -11 59 -30 93 -42 56 -19 82 -21 210 -19 143 3 148 2 180 -22 56
-42 72 -78 72 -162 0 -71 -2 -76 -32 -105 -29 -27 -45 -33 -121 -43 -99 -14
-305 1 -366 26 -18 8 -40 14 -49 14 -13 0 -33 8 -142 58 -134 62 -291 209
-350 328 -65 133 -81 262 -52 430 11 60 24 120 31 131 6 12 11 29 11 39 0 24
67 159 114 229 79 116 212 231 341 294 28 13 62 30 77 38 14 7 33 13 41 13 8
0 43 9 77 20 52 17 90 20 224 20 136 0 171 -3 219 -20 31 -11 64 -20 73 -20 9
0 28 -6 42 -14 15 -7 53 -26 85 -42 133 -67 282 -211 365 -354 61 -104 107
-207 118 -260 3 -19 10 -40 15 -46 5 -6 14 -44 19 -85 6 -41 15 -94 20 -119
23 -109 5 -290 -43 -445 -27 -87 -108 -248 -137 -275 -3 -3 -14 -18 -24 -35
-32 -51 -156 -174 -244 -241 -45 -35 -85 -64 -89 -64 -3 0 -14 -6 -22 -14 -31
-27 -205 -110 -301 -144 -30 -11 -71 -25 -90 -32 -19 -7 -63 -16 -96 -20 -34
-4 -66 -10 -73 -14 -35 -22 17 -86 70 -86 16 0 43 -6 61 -14 46 -20 126 -46
175 -56 23 -5 50 -14 60 -19 10 -6 38 -14 63 -20 25 -5 59 -14 75 -19 17 -6
50 -16 75 -22 63 -16 148 -37 198 -50 23 -5 61 -15 85 -21 23 -6 67 -15 97
-20 30 -6 77 -17 104 -25 26 -8 63 -14 81 -14 18 0 51 -7 74 -15 23 -8 72 -17
109 -21 37 -3 91 -13 121 -21 74 -21 289 -21 379 0 37 9 96 21 132 26 83 14
163 29 220 43 25 6 70 15 100 20 30 4 72 15 93 23 20 8 53 15 73 15 19 0 47 6
62 14 15 7 47 16 72 20 25 4 65 13 90 21 25 7 70 20 100 29 52 14 78 21 260
75 41 13 91 29 110 36 19 7 52 17 73 21 26 6 44 18 55 36 22 37 9 48 -64 55
-32 3 -71 12 -86 19 -15 8 -37 14 -50 14 -13 0 -40 9 -61 20 -20 11 -43 20
-51 20 -17 0 -224 105 -246 125 -9 8 -20 15 -24 15 -16 0 -174 130 -244 201
-39 41 -90 99 -111 130 -43 62 -111 186 -111 203 -1 6 -9 29 -20 51 -11 22
-19 50 -20 62 0 13 -6 40 -14 60 -30 79 -27 368 4 493 30 119 55 189 106 293
75 151 192 292 311 373 64 43 204 114 226 114 8 0 40 9 72 20 49 17 84 20 220
20 136 0 171 -3 220 -20 32 -11 66 -20 76 -20 9 0 30 -6 46 -14 15 -7 50 -24
78 -37 108 -52 206 -132 293 -239 153 -188 222 -405 208 -657 -6 -100 -11
-121 -62 -228 -50 -106 -191 -247 -305 -304 -24 -12 -51 -26 -59 -30 -128 -72
-371 -113 -535 -92 -104 14 -136 34 -161 99 -16 43 -16 48 2 101 21 64 78 125
125 135 17 3 83 3 147 0 115 -6 140 -3 222 28 112 43 206 152 233 272 39 173
-18 374 -142 504 -59 61 -174 142 -202 142 -9 0 -33 7 -52 15 -95 40 -265 -1
-412 -100 -116 -78 -248 -228 -302 -345 -11 -25 -29 -63 -39 -85 -14 -33 -18
-66 -18 -180 0 -123 3 -147 23 -195 12 -30 27 -62 31 -70 5 -8 22 -38 38 -65
37 -63 154 -189 235 -253 57 -46 248 -162 265 -162 4 0 25 -9 47 -20 22 -11
46 -20 55 -20 8 0 24 -7 34 -15 11 -8 29 -15 40 -15 11 0 47 -9 80 -19 108
-34 253 -42 431 -25 87 8 166 19 175 24 10 5 42 14 71 19 62 11 142 36 181 57
14 8 34 14 43 14 9 0 29 6 43 14 15 8 50 24 77 37 96 42 212 102 305 157 15 9
53 31 82 49 83 48 360 236 458 310 25 19 117 87 205 151 89 64 181 132 205
150 51 37 144 102 169 117 9 6 32 21 51 35 32 23 118 77 165 104 11 6 39 24
63 39 24 15 53 32 65 38 12 5 40 20 62 33 22 13 167 88 323 166 156 79 299
153 318 166 19 13 37 24 41 24 14 0 177 136 245 206 138 142 187 214 281 414
15 32 42 103 53 140 8 29 -14 42 -82 50 -38 5 -109 14 -157 20 -49 6 -102 17
-117 25 -16 8 -35 15 -43 15 -14 0 -100 38 -143 63 -46 27 -132 99 -161 134
-35 45 -92 143 -111 193 -20 51 -52 227 -52 286 0 70 32 208 64 276 37 78 98
140 181 185 l70 37 160 0 c129 -1 166 -4 192 -17 18 -10 40 -17 49 -17 40 0
188 -86 254 -147 99 -92 201 -257 229 -370 5 -21 14 -51 20 -68 5 -16 15 -63
21 -103 7 -39 20 -82 30 -94 16 -21 20 -21 69 -10 29 7 76 12 104 12 29 1 72
5 97 11 25 5 99 16 165 24 66 8 136 19 155 25 19 5 60 10 90 10 30 1 75 5 100
11 25 5 86 14 135 20 50 5 124 16 165 24 41 8 107 17 147 20 39 3 84 10 99 15
14 6 61 13 103 16 42 3 98 12 125 20 27 8 70 14 95 14 25 0 82 9 126 20 44 11
101 20 126 20 25 0 68 6 95 14 27 8 81 16 119 19 39 3 97 13 130 21 32 9 80
16 105 16 26 0 69 6 96 14 27 8 81 17 121 20 40 3 101 13 135 21 35 8 86 15
113 15 28 0 75 6 105 14 30 7 94 16 142 20 48 3 119 13 158 21 39 8 99 15 133
15 34 0 100 6 147 14 47 8 141 17 210 21 69 3 181 13 250 21 148 17 860 20
925 4 22 -6 85 -17 140 -25 154 -22 254 -45 380 -87 17 -5 46 -14 66 -19 19
-4 49 -15 65 -24 16 -8 36 -15 45 -15 8 0 24 -7 35 -15 10 -8 25 -15 32 -15 7
0 68 -27 135 -60 130 -65 136 -68 209 -117 26 -18 50 -33 54 -33 6 0 61 -43
176 -139 75 -61 215 -214 254 -276 10 -16 21 -32 25 -35 8 -7 82 -138 103
-185 11 -22 23 -49 28 -59 21 -41 73 -202 89 -276 6 -25 17 -75 26 -112 22
-96 21 -514 -1 -577 -9 -24 -16 -55 -16 -70 0 -42 -87 -290 -120 -341 -6 -8
-15 -26 -20 -39 -51 -117 -275 -371 -410 -462 -102 -69 -272 -159 -300 -159
-9 0 -21 -5 -27 -11 -5 -5 -34 -16 -64 -24 -30 -8 -72 -18 -94 -24 -60 -15
-247 -41 -296 -41 -43 0 -201 22 -289 39 -363 74 -696 328 -853 651 -20 41
-39 88 -43 104 -4 16 -13 41 -20 55 -8 14 -14 40 -14 57 0 17 -7 53 -15 80
-10 35 -15 97 -15 214 0 117 5 179 15 214 8 27 15 65 15 85 0 20 6 48 14 63 8
15 17 42 21 60 18 91 119 280 211 394 197 245 483 352 854 322 69 -6 137 -17
152 -24 15 -8 36 -14 48 -14 33 0 183 -79 257 -134 37 -28 87 -76 110 -106 24
-30 48 -61 53 -67 6 -7 15 -23 20 -35 6 -13 14 -30 19 -38 24 -43 42 -90 51
-135 5 -27 14 -66 20 -85 15 -50 12 -214 -4 -279 -8 -31 -18 -74 -24 -96 -32
-129 -136 -271 -222 -303 -8 -3 -22 -10 -30 -17 -8 -6 -45 -21 -83 -33 -85
-28 -285 -31 -344 -7 -19 8 -42 15 -51 15 -15 0 -54 17 -151 64 -25 11 -82 57
-127 101 -103 100 -154 189 -162 280 -5 73 4 95 60 135 37 27 49 30 115 30 65
0 79 -3 108 -26 30 -23 85 -115 85 -142 0 -5 22 -33 48 -61 l48 -51 73 0 c58
0 82 5 110 22 50 29 106 91 139 152 24 46 27 61 27 161 0 109 0 110 -36 165
-42 65 -122 139 -181 169 -24 12 -77 29 -118 37 -179 38 -381 -44 -565 -230
-83 -84 -107 -116 -142 -186 -53 -109 -63 -140 -75 -225 -13 -94 -3 -313 17
-361 8 -20 15 -43 15 -50 0 -28 85 -191 136 -259 72 -97 203 -218 264 -244 14
-6 32 -15 40 -20 36 -21 112 -51 129 -51 10 0 35 -7 54 -15 51 -21 317 -21
377 0 23 8 54 15 69 15 14 1 44 9 66 20 22 11 46 19 53 20 13 0 153 67 212
101 128 75 281 223 347 336 60 103 113 242 113 298 1 16 7 57 15 90 8 33 15
103 15 155 0 52 -7 122 -15 155 -8 33 -14 79 -15 102 0 23 -5 54 -11 70 -6 15
-17 51 -24 78 -19 73 -32 108 -86 230 -81 184 -253 387 -442 522 -38 27 -213
120 -302 159 -51 23 -118 45 -163 54 -23 5 -52 15 -63 21 -12 6 -45 15 -73 19
-28 5 -71 13 -96 19 -25 5 -79 15 -120 21 -41 6 -106 15 -145 21 -111 17 -886
6 -1005 -15 -52 -9 -123 -16 -158 -16 -35 0 -93 -6 -130 -14 -37 -8 -107 -17
-157 -20 -49 -3 -121 -12 -160 -21 -38 -8 -96 -15 -129 -15 -32 0 -84 -6 -115
-14 -31 -8 -95 -17 -143 -20 -48 -3 -116 -13 -150 -21 -35 -8 -88 -15 -118
-15 -31 0 -80 -6 -110 -14 -30 -7 -93 -17 -140 -20 -47 -4 -110 -13 -140 -21
-30 -8 -80 -15 -110 -15 -31 0 -80 -6 -110 -14 -30 -7 -92 -17 -136 -20 -45
-4 -106 -14 -135 -21 -30 -8 -79 -15 -109 -15 -31 0 -80 -6 -110 -14 -30 -7
-92 -17 -136 -20 -45 -4 -106 -14 -135 -21 -30 -8 -79 -15 -109 -15 -31 0 -80
-6 -110 -14 -30 -8 -93 -17 -140 -21 -47 -4 -110 -13 -141 -21 -31 -8 -80 -14
-109 -14 -29 0 -78 -6 -109 -14 -31 -8 -85 -17 -121 -21 -36 -4 -87 -13 -114
-21 -27 -8 -68 -14 -90 -14 -47 0 -193 -33 -207 -47 -5 -5 -14 -36 -20 -69 -6
-32 -15 -72 -21 -89 -5 -16 -14 -46 -19 -66 -4 -19 -15 -49 -24 -65 -8 -16
-15 -34 -15 -40 0 -13 -77 -164 -91 -179 -5 -5 -9 -21 -9 -36 0 -38 27 -44 89
-19 29 11 65 20 80 20 16 0 44 6 62 14 19 7 59 16 90 20 31 3 75 13 99 21 23
8 63 15 89 15 25 0 62 5 81 11 19 5 103 16 185 24 83 8 188 19 235 25 108 13
363 12 460 -1 41 -6 134 -16 205 -23 72 -8 143 -19 158 -25 16 -6 46 -11 67
-11 22 0 57 -7 77 -15 21 -8 58 -19 83 -24 25 -5 60 -14 78 -20 17 -6 46 -15
62 -21 55 -18 95 -33 130 -48 50 -21 123 -54 140 -63 8 -4 40 -20 70 -36 30
-15 66 -35 80 -44 14 -9 61 -40 105 -69 156 -103 357 -299 468 -457 49 -71
137 -225 166 -293 44 -105 48 -115 56 -148 4 -18 13 -45 21 -60 8 -15 14 -41
14 -58 0 -17 6 -50 14 -72 32 -90 29 -439 -4 -572 -16 -62 -59 -198 -69 -218
-5 -9 -21 -42 -36 -72 -66 -135 -129 -225 -229 -325 -75 -74 -191 -165 -240
-186 -12 -5 -28 -13 -36 -18 -61 -34 -159 -70 -227 -82 -29 -5 -63 -13 -77
-19 -40 -15 -224 -22 -296 -12 -299 44 -494 153 -650 362 -144 194 -210 431
-177 635 13 81 28 122 73 208 28 51 128 149 204 198 41 27 81 49 88 49 7 0 23
6 35 12 12 7 45 18 72 24 28 7 68 17 90 23 69 18 182 13 275 -13 113 -32 153
-50 214 -96 42 -32 55 -49 70 -94 19 -54 19 -57 1 -117 -14 -46 -28 -69 -58
-95 -71 -60 -91 -58 -252 35 -55 33 -125 45 -192 35 -64 -9 -136 -71 -182
-154 l-36 -65 1 -140 c0 -138 1 -141 33 -204 67 -129 186 -223 320 -253 235
-51 551 60 757 268 98 98 153 196 203 359 18 60 21 94 21 235 0 91 -5 183 -11
205 -6 22 -17 65 -24 95 -32 130 -114 313 -184 415 -126 184 -292 341 -466
441 -45 27 -181 94 -189 94 -4 0 -22 7 -39 15 -69 31 -145 54 -282 85 -133 29
-197 40 -275 44 -47 3 -142 10 -212 16 -92 8 -163 8 -260 0 -73 -6 -178 -13
-233 -16 -55 -3 -138 -11 -185 -19 -47 -8 -119 -19 -160 -25 -121 -16 -202
-30 -245 -41 -22 -6 -65 -14 -95 -18 -30 -5 -77 -16 -103 -25 -26 -9 -59 -16
-72 -16 -14 0 -42 -6 -62 -14 -21 -8 -55 -17 -75 -21 -20 -3 -50 -12 -65 -20
-15 -8 -38 -15 -50 -15 -12 0 -37 -6 -55 -14 -38 -15 -119 -43 -163 -56 -44
-13 -116 -39 -152 -55 -17 -8 -35 -15 -41 -15 -15 0 -33 -26 -27 -41 3 -8 42
-24 88 -37 45 -13 96 -28 112 -33 17 -6 46 -15 66 -20 19 -4 49 -15 65 -24 16
-8 34 -15 39 -15 20 0 220 -105 290 -152 226 -150 375 -353 430 -588 8 -30 18
-71 24 -90 6 -19 11 -102 11 -184 0 -125 -3 -160 -21 -215 -55 -170 -135 -287
-269 -393 -86 -68 -245 -141 -330 -151 -25 -3 -69 -9 -98 -13 -96 -13 -300 29
-353 73 -8 7 -19 13 -24 13 -21 0 -184 151 -185 172 0 3 -16 30 -35 59 -31 48
-35 61 -35 122 0 59 4 73 27 103 59 78 160 106 228 64 18 -11 51 -49 74 -85
74 -113 157 -164 283 -172 68 -5 87 0 186 50 56 28 133 109 168 178 27 52 28
59 27 199 0 127 -3 152 -22 200 -107 261 -215 373 -483 501 -15 7 -70 25 -229
75 -26 8 -62 14 -81 14 -18 0 -58 7 -88 15 -36 10 -118 17 -240 21 l-185 5
-95 -81 c-79 -68 -182 -147 -465 -357 -17 -12 -73 -51 -125 -87 -52 -36 -121
-83 -153 -106 -31 -22 -59 -40 -62 -40 -2 0 -30 -17 -62 -39 -80 -54 -188
-121 -253 -160 -30 -17 -62 -36 -70 -41 -27 -17 -254 -145 -310 -175 -30 -16
-84 -44 -120 -63 -36 -18 -72 -37 -80 -42 -8 -5 -40 -21 -70 -35 -30 -14 -62
-30 -70 -35 -8 -5 -50 -25 -92 -44 -43 -20 -111 -52 -151 -71 -39 -19 -75 -35
-79 -35 -4 0 -40 -15 -80 -33 -40 -19 -98 -44 -128 -56 -30 -13 -68 -29 -83
-37 -16 -8 -33 -14 -39 -14 -6 0 -29 -8 -52 -19 -82 -37 -117 -51 -129 -51 -7
0 -25 -7 -42 -16 -16 -9 -43 -20 -60 -24 -16 -5 -61 -20 -100 -35 -38 -14 -87
-31 -108 -36 -21 -5 -45 -13 -55 -18 -23 -13 -109 -41 -153 -50 -19 -4 -42
-11 -49 -16 -8 -5 -37 -14 -64 -21 -28 -7 -64 -17 -81 -22 -75 -26 -172 -52
-188 -52 -26 0 -31 -25 -13 -70 22 -54 21 -147 -2 -181 -9 -15 -53 -62 -98
-105 -44 -44 -139 -140 -210 -214 -349 -366 -742 -763 -774 -782 -49 -29 -144
-29 -191 -1 -19 12 -106 95 -194 185 -873 890 -889 907 -904 954 -12 39 -13
53 -1 93 21 74 24 110 9 115 -17 5 -136 39 -231 67 -40 11 -88 27 -106 35 -18
8 -41 14 -52 14 -11 0 -34 6 -52 14 -32 14 -103 38 -163 56 -56 16 -130 43
-157 56 -14 8 -33 14 -42 14 -8 0 -35 9 -58 19 -24 11 -63 27 -88 36 -84 32
-145 57 -173 71 -16 8 -35 14 -43 14 -8 0 -32 9 -52 19 -20 11 -55 27 -77 37
-22 9 -58 24 -80 34 -22 10 -56 24 -75 32 -113 49 -438 209 -580 286 -41 23
-88 48 -105 56 -16 8 -57 31 -90 50 -33 20 -73 43 -90 51 -16 9 -43 25 -60 35
-16 11 -43 27 -60 35 -16 9 -57 33 -90 55 -33 22 -67 43 -75 47 -8 4 -36 22
-62 40 -26 18 -50 33 -52 33 -5 0 -286 188 -366 245 -170 122 -540 405 -588
452 -15 15 -247 17 -342 3 -121 -17 -207 -32 -255 -45 -68 -18 -212 -64 -233
-74 -9 -4 -39 -19 -67 -32 -137 -67 -271 -186 -343 -306 -23 -39 -42 -75 -42
-80 0 -4 -7 -21 -15 -37 -22 -41 -47 -159 -52 -239 -5 -76 13 -152 54 -231 35
-67 48 -81 118 -130 79 -55 116 -69 199 -74 67 -4 90 2 175 42 47 22 141 126
141 156 0 5 20 25 44 44 36 30 51 36 92 36 94 0 194 -98 194 -190 0 -56 -72
-173 -159 -260 -151 -150 -336 -202 -576 -163 -75 12 -169 43 -188 62 -6 6
-17 11 -24 11 -19 0 -130 79 -194 138 -77 71 -178 224 -179 272 0 9 -5 21 -11
27 -5 5 -17 57 -25 114 -34 236 27 507 157 703 77 116 196 230 319 307 84 52
91 56 150 84 30 14 67 32 82 40 14 8 32 15 40 15 7 1 31 9 53 20 22 11 49 19
61 20 11 0 29 7 40 15 10 8 28 15 40 15 32 0 157 41 173 56 12 11 12 16 1 28
-7 9 -20 16 -29 16 -9 0 -25 6 -36 14 -11 7 -33 16 -50 20 -16 4 -43 13 -60
20 -38 17 -87 34 -145 51 -25 8 -58 18 -75 23 -16 6 -61 19 -100 30 -166 48
-238 66 -335 83 -30 6 -80 16 -110 24 -59 15 -142 29 -260 45 -41 6 -113 17
-160 25 -47 8 -130 16 -185 19 -55 3 -162 10 -237 17 -101 8 -169 8 -265 -1
-70 -6 -166 -14 -213 -16 -81 -5 -148 -16 -290 -51 -36 -8 -81 -19 -100 -23
-109 -25 -365 -142 -472 -216 -214 -148 -356 -315 -475 -557 -24 -48 -43 -92
-43 -97 0 -5 -6 -24 -14 -42 -22 -53 -55 -178 -62 -243 -19 -152 -4 -380 31
-460 68 -160 100 -210 200 -310 63 -63 120 -110 155 -128 30 -16 62 -32 70
-37 41 -24 153 -67 210 -80 147 -35 183 -37 286 -15 90 19 147 44 205 92 130
109 179 211 179 375 0 100 -5 121 -55 218 -34 67 -110 125 -173 134 -92 12
-136 -1 -277 -84 -66 -38 -94 -37 -147 3 -57 44 -88 99 -88 160 0 119 94 198
300 254 114 30 205 30 326 -2 243 -63 399 -189 481 -387 23 -55 27 -81 31
-200 3 -120 1 -147 -17 -205 -12 -36 -21 -70 -21 -74 0 -5 -18 -48 -41 -95
-126 -271 -332 -441 -614 -510 -144 -35 -358 -41 -432 -13 -13 5 -47 13 -76
18 -51 9 -146 40 -183 59 -10 5 -39 20 -64 32 -25 13 -52 29 -61 36 -8 8 -19
14 -23 14 -16 0 -137 103 -199 170 -69 75 -148 185 -190 265 -37 71 -67 139
-67 152 0 6 -6 24 -14 40 -22 44 -36 107 -58 268 -20 147 -20 154 -3 305 9 85
23 172 31 193 8 20 14 47 14 60 0 12 6 34 14 48 7 14 16 39 20 55 8 34 18 56
81 187 129 264 336 498 600 679 44 30 87 58 95 61 8 4 33 18 55 32 48 29 203
105 215 105 5 0 21 6 37 14 48 24 138 56 156 56 10 0 28 5 40 12 12 6 47 17
77 24 30 7 73 17 95 23 79 20 152 32 280 46 72 8 164 19 205 24 108 15 368 13
490 -3 58 -8 152 -17 210 -21 58 -4 130 -14 160 -21 30 -8 75 -14 100 -14 26
0 66 -7 91 -15 24 -8 71 -19 104 -24 56 -9 81 -15 188 -42 75 -19 119 -22 127
-9 8 13 -23 83 -47 108 -7 7 -13 22 -13 31 0 10 -7 24 -15 31 -8 7 -15 19 -15
26 0 7 -8 33 -19 56 -25 58 -40 103 -56 168 -7 30 -19 76 -25 103 -10 38 -16
48 -38 53 -15 4 -52 13 -82 20 -30 8 -75 14 -101 14 -25 0 -64 6 -85 14 -22 7
-73 16 -114 20 -41 4 -100 14 -130 22 -30 8 -79 14 -110 14 -30 0 -71 5 -90
11 -19 5 -87 16 -150 24 -63 8 -135 19 -160 24 -25 6 -67 10 -94 11 -26 0 -74
6 -105 14 -31 8 -92 18 -136 21 -44 4 -105 13 -136 21 -31 8 -81 14 -110 14
-30 0 -78 7 -108 15 -29 7 -90 17 -135 20 -44 4 -106 13 -137 21 -31 8 -81 14
-110 14 -30 0 -82 7 -117 15 -34 8 -95 18 -135 21 -40 3 -102 12 -139 20 -37
8 -91 14 -120 14 -29 0 -80 7 -113 15 -33 8 -96 17 -140 20 -44 4 -110 13
-147 21 -37 8 -93 14 -125 14 -32 0 -86 7 -121 15 -35 8 -114 19 -175 25 -62
5 -146 14 -187 19 -41 6 -122 15 -180 21 -58 6 -149 15 -203 21 -155 17 -884
6 -967 -14 -36 -9 -83 -16 -105 -17 -22 0 -60 -6 -85 -14 -25 -8 -67 -19 -95
-24 -159 -32 -399 -130 -523 -213 -24 -16 -45 -29 -48 -29 -12 0 -144 -113
-201 -171 -146 -151 -256 -342 -332 -580 -12 -36 -21 -76 -21 -88 0 -13 -8
-48 -17 -79 -25 -81 -25 -416 0 -481 9 -24 17 -53 17 -65 0 -30 61 -173 103
-243 120 -198 411 -405 652 -465 22 -6 62 -16 89 -24 70 -20 312 -19 385 2
100 29 165 56 238 101 74 45 185 146 239 218 37 49 114 182 114 198 1 7 9 30
20 52 11 22 19 49 20 61 0 11 7 41 16 67 20 60 15 296 -10 377 -45 150 -118
265 -241 378 -59 54 -190 142 -212 142 -4 0 -21 7 -38 16 -38 20 -136 38 -200
38 -100 -2 -160 -21 -250 -79 -104 -69 -175 -194 -175 -307 1 -103 75 -236
165 -297 41 -27 54 -31 116 -31 57 0 76 4 100 23 39 28 85 95 94 137 4 20 26
51 52 76 l45 44 75 0 c88 0 129 -19 162 -76 35 -59 28 -107 -33 -233 -28 -58
-139 -175 -201 -212 -155 -92 -217 -111 -388 -116 -111 -4 -137 -1 -190 17
-165 56 -239 120 -314 270 -12 25 -23 52 -23 61 0 9 -7 34 -16 55 -24 57 -24
376 0 421 9 18 16 40 16 49 0 10 19 56 43 102 48 97 135 198 224 258 62 43
205 114 228 114 8 0 32 7 52 14 67 26 263 36 398 21 126 -14 226 -38 260 -61
11 -8 25 -14 31 -14 36 0 167 -92 254 -180 183 -183 297 -434 329 -725 38
-343 -39 -631 -232 -872 -97 -121 -253 -254 -362 -308 -16 -9 -37 -19 -45 -24
-19 -10 -96 -45 -135 -61 -28 -12 -65 -22 -170 -49 -22 -6 -96 -18 -164 -27
-108 -16 -135 -16 -220 -5 -53 8 -121 17 -151 20 -95 12 -272 72 -360 122 -8
5 -26 14 -39 19 -46 20 -187 119 -258 182 -199 176 -360 436 -419 678 -7 30
-18 73 -23 95 -6 22 -17 105 -26 184 -13 128 -13 161 1 300 8 86 21 179 29
206 8 28 17 67 20 87 3 20 12 50 20 65 8 15 15 35 15 43 0 23 75 201 109 259
17 28 31 54 31 57 0 2 17 28 37 57 129 185 283 334 473 459 77 51 232 139 270
154 8 3 33 14 55 24 22 10 60 26 85 35 25 9 61 24 80 32 19 9 51 19 70 23 19
5 49 13 65 19 85 29 164 51 187 51 14 0 43 6 64 14 22 7 73 16 114 20 41 4
102 14 135 22 86 20 773 20 940 0 66 -8 179 -18 250 -21 72 -4 168 -13 214
-21 46 -8 113 -14 150 -14 36 0 94 -7 128 -15 34 -8 99 -17 145 -20 46 -4 113
-13 150 -21 37 -8 89 -14 115 -14 27 0 75 -7 107 -15 33 -9 93 -18 135 -21 42
-3 98 -12 125 -20 27 -8 70 -14 96 -14 25 0 72 -7 104 -15 32 -9 97 -19 145
-24 47 -5 99 -14 114 -20 16 -6 49 -11 75 -11 26 0 85 -9 132 -20 47 -11 106
-20 132 -20 26 0 59 -5 75 -11 15 -6 71 -15 123 -20 52 -5 109 -14 126 -19 17
-6 76 -15 132 -19 55 -5 106 -12 112 -16 6 -4 54 -11 107 -16 52 -5 129 -16
169 -24 40 -8 96 -15 125 -15 28 0 77 -6 108 -14 31 -8 92 -17 136 -20 44 -4
98 -12 119 -17 21 -6 82 -15 135 -20 53 -5 115 -12 138 -15 40 -6 42 -5 48 22
3 16 15 63 25 105 11 42 20 85 20 95 0 11 7 32 15 48 8 15 15 35 15 43 0 19
73 165 109 216 54 77 226 227 261 227 6 0 27 9 47 20 21 11 46 20 56 20 10 0
28 6 40 12 31 18 135 27 253 22 81 -3 112 -9 159 -30z m7386 -7293 c36 -36 37
-72 7 -129 -23 -41 -323 -332 -343 -332 -11 1 -65 46 -65 55 0 3 55 94 122
202 128 205 153 233 216 233 24 0 42 -9 63 -29z m-1109 8 c132 -28 208 -97
208 -188 0 -80 -40 -121 -118 -121 -70 0 -110 58 -99 140 7 57 -16 74 -106 78
-67 3 -75 2 -113 -26 -27 -20 -52 -51 -70 -89 -29 -58 -29 -60 -32 -275 l-4
-218 181 0 181 0 0 -48 0 -49 -177 -7 c-97 -4 -178 -8 -179 -9 -2 -1 -4 -260
-6 -574 l-3 -572 83 6 82 6 0 -57 0 -56 -275 0 -275 0 0 39 c0 37 1 39 39 45
48 7 96 58 108 113 4 21 8 265 8 543 l0 505 -112 -3 -113 -3 0 61 0 60 115 0
115 0 0 113 c1 380 163 587 467 596 23 0 66 -4 95 -10z m-2725 -674 c137 -32
257 -115 302 -208 25 -52 28 -144 6 -187 -27 -52 -97 -74 -159 -50 -60 22 -84
122 -47 191 19 35 19 36 0 66 -46 72 -170 119 -294 110 -189 -13 -319 -129
-387 -347 -20 -66 -23 -95 -23 -235 1 -181 12 -240 72 -365 46 -95 137 -189
220 -227 82 -38 213 -44 310 -15 99 31 201 99 264 178 l26 33 31 -22 c18 -12
32 -26 32 -31 0 -21 -81 -113 -144 -162 -131 -104 -271 -154 -426 -154 -316 0
-564 192 -640 494 -28 109 -27 283 0 392 67 262 258 465 503 535 79 23 266 25
354 4z m1374 -13 c111 -44 179 -129 214 -268 18 -72 21 -194 17 -664 l-4 -335
96 4 96 3 0 -56 0 -56 -194 0 -194 0 -6 28 c-2 15 -8 48 -11 75 l-6 47 -71
-55 c-133 -104 -243 -141 -399 -133 -149 8 -245 51 -310 141 -40 55 -52 107
-47 202 3 65 10 91 33 133 91 168 337 285 662 314 l136 12 -6 152 c-8 230 -41
315 -140 366 -115 58 -310 19 -383 -78 -26 -34 -26 -34 -9 -70 42 -88 -9 -184
-98 -184 -74 0 -117 50 -117 135 0 129 124 243 320 295 108 29 339 24 421 -8z
m2364 13 c197 -51 335 -201 380 -410 8 -39 15 -91 15 -117 l0 -46 -62 -6 c-35
-3 -249 -8 -477 -11 -228 -3 -417 -7 -419 -10 -3 -3 0 -63 7 -135 26 -286 112
-451 276 -527 54 -25 71 -28 165 -28 76 0 120 5 160 19 95 32 192 89 251 146
l57 56 30 -26 31 -25 -41 -53 c-83 -106 -248 -204 -402 -237 -102 -23 -263
-16 -356 13 -225 72 -388 269 -437 525 -21 113 -13 296 17 392 76 241 254 419
480 479 74 20 250 20 325 1z"/>
<path d="M14247 25123 c-13 -12 -7 -271 8 -359 27 -159 87 -313 172 -441 40
-62 200 -229 210 -220 3 3 -4 34 -16 69 -35 107 -79 307 -97 438 -19 147 -14
363 10 450 9 30 16 58 16 63 0 9 -294 10 -303 0z"/>
<path d="M15910 24869 c0 -69 -46 -366 -66 -433 -6 -18 -2 -19 45 -13 59 7
136 39 169 70 36 34 52 83 52 162 0 96 -26 147 -95 186 -63 35 -105 46 -105
28z"/>
<path d="M12795 23980 c-38 -22 -77 -43 -85 -47 -34 -15 -164 -105 -231 -159
-82 -66 -232 -216 -290 -291 -66 -84 -62 -87 131 -95 90 -4 183 -12 205 -18
22 -5 67 -14 100 -20 72 -11 138 -27 183 -46 18 -8 41 -14 50 -14 10 0 27 -7
38 -15 10 -8 25 -15 32 -15 38 -1 241 -105 367 -188 228 -151 452 -383 589
-609 41 -69 126 -237 126 -250 0 -4 6 -19 13 -33 7 -14 23 -59 36 -100 12 -41
27 -88 33 -105 6 -16 14 -57 19 -90 5 -33 14 -73 20 -90 15 -44 23 -432 10
-555 -11 -110 -25 -191 -43 -250 -6 -19 -15 -51 -19 -70 -8 -40 -61 -190 -83
-235 -8 -16 -24 -50 -36 -75 -128 -272 -383 -562 -651 -740 -33 -22 -63 -40
-66 -40 -4 0 -14 -6 -22 -14 -9 -8 -63 -37 -121 -66 -58 -28 -118 -58 -133
-66 -16 -8 -33 -14 -39 -14 -5 0 -24 -6 -41 -14 -44 -19 -134 -47 -182 -57
-22 -4 -58 -12 -80 -18 -77 -19 -261 -41 -350 -41 -87 0 -256 20 -340 41 -22
6 -60 14 -85 20 -24 5 -49 14 -54 19 -6 6 -16 10 -24 10 -24 0 -153 60 -222
104 -128 81 -242 196 -317 321 -71 119 -133 330 -133 455 0 131 55 303 128
400 121 161 384 300 702 371 25 6 68 17 96 25 28 8 63 14 79 14 16 0 51 6 79
14 28 8 80 19 116 25 60 11 122 23 260 52 30 6 70 17 88 25 18 8 43 14 55 14
12 0 35 7 51 15 15 8 35 15 42 15 46 0 209 96 280 164 31 30 81 119 104 184
26 72 28 233 4 307 -86 271 -304 432 -629 466 -113 12 -382 2 -456 -17 -31 -8
-69 -14 -84 -14 -15 0 -48 -6 -74 -14 -25 -8 -73 -22 -106 -32 -64 -18 -147
-47 -205 -72 -19 -8 -48 -20 -65 -27 -123 -51 -366 -188 -493 -279 -197 -142
-309 -235 -511 -425 -145 -136 -460 -467 -606 -636 -43 -49 -84 -94 -91 -98
-28 -16 -14 -58 43 -130 31 -40 59 -74 62 -77 4 -3 40 -45 81 -95 371 -445
747 -781 1125 -1005 66 -39 127 -75 135 -80 8 -6 29 -16 45 -23 95 -43 153
-70 178 -83 16 -8 36 -14 46 -14 9 0 26 -7 37 -15 10 -8 27 -15 37 -15 11 0
33 -6 50 -14 46 -20 119 -39 282 -71 161 -32 500 -35 665 -4 30 5 78 14 105
19 85 15 198 47 310 87 82 30 240 106 300 144 17 10 37 22 45 26 60 28 207
149 326 267 242 243 381 470 503 826 13 37 49 185 76 306 8 40 15 96 15 125 0
30 5 95 11 144 19 164 -14 474 -74 695 -30 110 -87 260 -136 360 -98 198 -146
258 -415 520 -355 346 -489 482 -552 560 -157 194 -240 356 -253 493 -6 61
-18 87 -41 87 -3 -1 -36 -18 -75 -40z"/>
<path d="M17245 24008 c-2 -7 -6 -33 -9 -58 -28 -234 -207 -492 -592 -855
-397 -372 -532 -524 -610 -685 -15 -30 -38 -77 -51 -105 -28 -58 -44 -100 -79
-210 -15 -44 -33 -99 -40 -123 -8 -23 -14 -53 -14 -67 0 -13 -5 -36 -11 -52
-6 -15 -15 -64 -20 -108 -5 -44 -13 -109 -18 -145 -14 -84 -13 -287 0 -370 5
-36 12 -92 15 -125 8 -93 59 -310 90 -383 8 -18 14 -39 14 -47 0 -8 6 -29 14
-47 85 -193 108 -242 163 -335 71 -122 169 -251 284 -374 62 -66 221 -199 303
-252 106 -68 107 -69 206 -118 110 -54 129 -62 260 -109 40 -14 132 -37 205
-51 28 -6 64 -15 80 -20 25 -9 154 -20 355 -31 75 -5 301 12 370 27 134 29
156 34 210 49 70 18 118 35 152 52 14 8 33 14 41 14 9 0 28 6 44 14 15 8 78
38 138 67 125 60 279 149 387 224 361 250 664 543 1087 1055 71 85 88 128 58
147 -7 4 -55 55 -106 113 -217 243 -285 315 -481 510 -434 433 -765 669 -1182
844 -119 49 -268 93 -428 125 -168 34 -505 35 -630 1 -226 -61 -379 -180 -463
-360 l-40 -85 -1 -145 0 -145 37 -75 c38 -79 85 -137 152 -186 48 -36 186
-104 212 -104 10 0 27 -7 37 -15 11 -8 32 -15 48 -15 15 0 42 -6 60 -14 18 -8
58 -19 88 -25 136 -29 199 -41 260 -52 36 -6 87 -17 114 -25 26 -8 62 -14 79
-14 17 0 53 -6 81 -14 28 -8 71 -19 96 -25 227 -50 429 -137 572 -245 104 -80
164 -159 213 -280 22 -55 48 -234 41 -281 -3 -22 -10 -71 -16 -108 -9 -62 -39
-164 -59 -205 -71 -142 -119 -211 -200 -292 -64 -63 -162 -134 -246 -178 -61
-32 -132 -62 -147 -62 -8 0 -18 -4 -24 -10 -5 -5 -30 -14 -54 -19 -25 -6 -63
-14 -85 -20 -203 -51 -493 -51 -690 0 -22 6 -58 14 -80 18 -42 8 -209 63 -260
86 -91 41 -213 102 -242 122 -19 13 -36 23 -38 23 -3 0 -34 20 -70 45 -271
185 -504 449 -642 726 -24 48 -43 91 -43 96 -1 4 -9 26 -20 48 -11 22 -19 45
-20 52 0 7 -6 27 -14 45 -62 149 -112 482 -103 681 10 185 43 405 73 475 8 18
14 41 14 52 0 11 6 34 14 52 8 18 24 58 36 88 21 52 77 171 103 215 96 167
263 375 385 482 37 32 78 68 92 81 54 50 256 177 365 230 86 42 205 92 221 92
7 0 28 6 46 14 106 44 358 84 541 85 146 1 149 13 38 140 -173 199 -342 333
-571 454 -78 40 -89 43 -95 25z"/>
<path d="M12010 23069 c-41 -5 -109 -13 -150 -19 -97 -12 -214 -35 -230 -45
-8 -5 -30 -12 -49 -16 -34 -7 -49 -11 -141 -44 -76 -28 -253 -107 -300 -135
-8 -5 -55 -32 -105 -61 -386 -226 -788 -602 -1243 -1162 -68 -84 -140 -172
-160 -196 -61 -72 -66 -87 -45 -124 15 -25 26 -32 49 -32 25 0 51 24 184 169
159 174 508 529 615 627 152 137 439 360 580 449 155 98 301 177 455 247 19 9
43 20 52 24 33 17 212 77 298 102 105 29 145 38 230 47 47 6 109 15 139 20
111 20 395 1 512 -36 26 -8 57 -14 70 -14 13 -1 35 -7 49 -15 14 -8 33 -14 43
-15 18 0 99 -32 127 -50 8 -6 26 -15 39 -20 89 -38 247 -181 316 -285 44 -67
85 -149 107 -215 54 -159 52 -149 52 -330 0 -164 -2 -180 -27 -253 -81 -238
-218 -392 -432 -487 -27 -13 -62 -29 -77 -36 -14 -8 -34 -14 -43 -14 -10 0
-38 -6 -64 -14 -91 -29 -200 -47 -469 -81 -62 -8 -117 -17 -123 -20 -5 -4 -44
-10 -87 -15 -216 -25 -453 -116 -585 -225 -77 -64 -117 -114 -162 -201 -31
-60 -35 -77 -35 -143 0 -67 4 -84 36 -147 45 -90 114 -168 213 -242 89 -66 99
-73 166 -105 97 -46 126 -57 149 -57 13 0 43 -7 66 -15 60 -21 372 -21 453 0
32 8 70 15 84 15 45 0 236 68 333 120 111 58 190 110 311 201 209 159 373 352
471 551 22 46 47 95 54 110 8 14 14 35 14 46 0 12 4 23 9 27 5 3 12 20 16 38
4 17 13 55 20 82 36 134 47 239 43 405 -6 193 -23 305 -70 445 -5 17 -14 47
-19 68 -5 21 -14 45 -19 55 -5 9 -19 40 -30 67 -29 69 -49 107 -124 232 -39
65 -118 166 -185 236 -49 52 -251 217 -264 217 -4 0 -21 10 -40 23 -18 12 -74
42 -123 66 -49 24 -101 50 -116 57 -14 8 -34 14 -43 14 -9 0 -29 6 -43 14 -31
16 -94 33 -171 47 -29 5 -61 14 -71 19 -41 22 -402 43 -510 29z"/>
<path d="M17840 23069 c-159 -17 -294 -40 -355 -61 -16 -6 -43 -13 -60 -16
-16 -2 -39 -11 -50 -18 -11 -8 -28 -14 -38 -14 -10 0 -31 -6 -45 -14 -15 -7
-63 -31 -107 -52 -115 -56 -169 -89 -265 -163 -224 -172 -380 -377 -499 -655
-12 -27 -21 -56 -21 -65 0 -9 -7 -25 -15 -35 -8 -11 -15 -29 -15 -40 0 -12 -6
-41 -14 -66 -35 -110 -48 -201 -53 -365 -7 -231 20 -411 83 -563 8 -18 14 -38
14 -46 0 -22 107 -222 162 -303 102 -150 342 -370 538 -493 99 -63 131 -80
220 -117 122 -52 190 -73 320 -97 114 -22 397 -22 466 -1 27 8 59 15 71 15 23
0 61 15 148 57 67 32 78 39 161 101 126 92 196 181 244 309 24 64 11 165 -32
247 -24 46 -118 154 -169 193 -76 58 -268 153 -309 153 -10 0 -31 7 -46 15
-16 8 -43 15 -60 15 -17 0 -48 7 -67 15 -20 8 -56 15 -79 15 -24 0 -59 5 -78
10 -19 6 -84 17 -145 25 -276 35 -376 53 -466 81 -26 8 -55 14 -66 14 -11 0
-28 7 -39 15 -10 8 -25 15 -32 15 -13 0 -97 39 -137 63 -11 7 -50 35 -86 64
-135 106 -244 282 -269 438 -4 28 -13 70 -19 95 -20 85 -7 222 36 370 73 251
233 449 458 568 65 34 133 62 152 62 10 1 29 7 43 15 14 8 36 14 49 15 13 0
44 6 70 14 117 37 401 56 512 36 30 -6 90 -14 134 -19 133 -16 328 -67 442
-117 17 -8 36 -14 43 -14 7 0 24 -6 38 -14 15 -7 90 -44 166 -81 118 -57 250
-131 351 -195 112 -71 361 -260 497 -378 197 -169 353 -326 733 -736 133 -144
135 -146 143 -146 17 0 62 57 62 78 0 39 -280 385 -560 692 -299 327 -614 594
-895 759 -49 29 -97 56 -105 61 -72 42 -272 129 -345 150 -30 8 -57 17 -125
40 -78 26 -223 51 -415 69 -122 12 -152 12 -275 0z"/>
<path d="M3440 21441 c-321 -31 -632 -240 -771 -520 -34 -68 -74 -196 -85
-271 -18 -124 -4 -414 25 -505 5 -16 19 -64 31 -105 22 -75 28 -89 70 -185 59
-135 134 -260 217 -365 63 -79 194 -210 210 -210 18 0 29 29 17 46 -65 92
-102 154 -128 214 -8 19 -24 57 -35 84 -12 27 -21 58 -21 70 -1 11 -7 32 -15
46 -8 14 -15 41 -15 60 0 19 -7 60 -15 90 -10 38 -15 107 -15 225 0 118 5 187
15 225 8 30 15 68 15 84 0 42 41 181 82 276 64 150 125 239 244 358 56 56 107
102 113 102 5 0 29 13 53 28 24 15 68 39 98 51 30 13 69 30 87 37 17 8 38 14
46 14 8 0 30 6 48 14 19 7 66 16 104 20 120 11 135 16 135 40 0 30 -18 46 -52
46 -16 0 -44 6 -62 14 -41 17 -285 27 -396 17z"/>
<path d="M26400 21441 c-41 -4 -88 -13 -103 -19 -16 -7 -41 -12 -56 -12 -33 0
-51 -16 -51 -46 0 -24 15 -29 135 -40 39 -4 85 -13 104 -20 18 -8 41 -14 50
-14 9 0 29 -7 45 -15 15 -8 33 -15 38 -15 9 0 93 -40 133 -63 203 -119 347
-296 435 -532 12 -33 29 -75 36 -93 8 -18 14 -43 14 -57 0 -13 5 -36 12 -52
13 -32 24 -119 34 -281 8 -126 -7 -318 -31 -393 -8 -26 -15 -56 -15 -68 0 -11
-6 -35 -14 -53 -8 -18 -28 -67 -46 -108 -32 -77 -103 -205 -127 -228 -17 -18
-17 -52 1 -52 23 0 88 60 197 182 49 54 157 222 199 308 22 47 47 97 55 112 8
14 15 31 15 38 0 7 6 26 13 43 19 45 43 128 67 230 17 73 21 121 20 275 0 192
-10 256 -62 392 -80 212 -267 398 -498 498 -25 11 -62 27 -83 36 -21 9 -48 16
-61 16 -13 0 -39 6 -57 14 -41 17 -288 27 -399 17z"/>
<path d="M19024 16074 c-79 -344 -125 -499 -301 -1007 -79 -231 -143 -421
-140 -423 2 -2 211 -3 464 -2 l461 3 -109 300 c-210 576 -281 799 -334 1038
-13 60 -26 111 -29 114 -3 3 -8 -8 -12 -23z"/>
<path d="M7233 16661 c-303 -49 -546 -249 -698 -575 -217 -463 -256 -1141 -99
-1712 135 -496 390 -816 742 -934 88 -30 110 -34 249 -38 225 -7 344 25 508
133 272 181 453 534 527 1030 18 122 18 673 0 810 -65 490 -207 828 -439 1046
-122 115 -238 181 -388 219 -89 24 -312 35 -402 21z"/>
<path d="M3302 16599 c-113 -20 -173 -75 -214 -198 -22 -64 -23 -80 -26 -600
l-3 -534 203 6 c231 8 297 20 402 75 210 110 316 335 316 672 0 197 -46 325
-154 434 -29 28 -75 63 -103 79 -103 55 -304 87 -421 66z"/>
<path d="M3056 14223 c-3 -362 -8 -679 -12 -705 l-6 -48 168 0 c246 1 480 16
554 35 246 63 399 230 455 497 20 95 20 309 -1 401 -41 182 -165 335 -330 409
-126 55 -167 61 -505 65 l-317 5 -6 -659z"/>
<path d="M22757 16590 c-21 -6 -58 -24 -82 -40 -54 -37 -100 -125 -115 -220
-6 -39 -10 -314 -10 -686 0 -583 1 -622 18 -629 9 -4 100 -9 202 -12 295 -8
477 30 628 131 208 139 306 400 289 766 -7 152 -25 227 -84 349 -77 162 -216
273 -408 326 -70 20 -377 30 -438 15z"/>
<path d="M9475 11683 c-38 -12 -64 -30 -110 -78 -62 -64 -93 -124 -113 -220
-6 -27 -15 -68 -21 -90 -14 -54 -14 -148 1 -163 8 -8 56 -12 148 -12 112 0
149 4 206 21 107 34 188 98 229 182 37 76 39 100 13 173 -30 86 -107 160 -193
187 -66 20 -93 20 -160 0z"/>
<path d="M20448 11682 c-74 -26 -131 -73 -166 -135 -27 -48 -32 -67 -32 -125
0 -59 4 -75 30 -116 55 -86 116 -131 224 -164 56 -18 94 -22 202 -22 73 0 139
3 148 6 19 7 22 96 5 141 -6 15 -14 55 -19 88 -23 166 -112 289 -237 328 -63
21 -94 20 -155 -1z"/>
<path d="M14925 7105 c-27 -7 -84 -14 -127 -14 -42 -1 -112 -8 -155 -16 -43
-8 -95 -15 -115 -15 -89 0 -89 -24 -1 -115 269 -280 505 -515 516 -515 13 0
578 571 585 592 8 19 -22 38 -62 38 -22 0 -79 7 -126 15 -47 8 -114 15 -150
15 -36 0 -92 7 -125 15 -72 17 -172 17 -240 0z"/>
<path d="M14635 3286 c-160 -25 -279 -79 -354 -161 -52 -57 -71 -107 -71 -181
1 -90 54 -167 136 -194 51 -17 177 -7 244 19 30 11 87 44 125 73 l70 53 3 203
2 202 -37 -1 c-21 -1 -74 -7 -118 -13z"/>
<path d="M16866 3914 c-63 -20 -112 -51 -158 -102 -56 -62 -84 -126 -112 -254
l-6 -28 350 0 350 0 0 33 c0 58 -29 167 -57 218 -34 63 -99 122 -151 137 -53
16 -156 14 -216 -4z"/>
<path d="M26585 3725 c-244 -45 -487 -196 -634 -393 -309 -418 -270 -986 93
-1348 96 -95 175 -151 300 -210 137 -65 226 -85 396 -91 120 -4 162 -2 241 15
419 87 741 418 814 837 95 544 -267 1074 -809 1186 -107 22 -294 24 -401 4z
m391 -215 c318 -81 563 -348 614 -670 66 -421 -200 -825 -614 -930 -110 -28
-292 -28 -402 0 -365 93 -624 424 -624 800 0 374 257 705 620 799 106 28 298
28 406 1z"/>
<path d="M26310 2711 l0 -551 140 0 140 0 0 215 0 215 28 0 c68 0 126 -71 249
-306 l65 -124 164 0 c90 0 164 3 164 6 0 11 -163 297 -203 357 -23 34 -58 71
-84 88 -39 24 -43 29 -27 35 107 37 178 89 221 162 21 35 27 62 31 122 6 107
-15 168 -82 235 -86 86 -98 89 -478 93 l-328 3 0 -550z m527 330 c67 -31 92
-105 58 -171 -25 -49 -66 -64 -192 -68 l-113 -4 0 131 0 131 103 0 c78 0 112
-5 144 -19z"/>
</g>
</svg>
